<svg xmlns="http://www.w3.org/2000/svg" viewBox="0 0 100 100">
  <defs>
    <linearGradient id="g" x1="0%" y1="0%" x2="100%" y2="100%">
      <stop offset="0%" stop-color="#0b6b5a"/>
      <stop offset="100%" stop-color="#0d9488"/>
    </linearGradient>
  </defs>
  <rect width="100" height="100" rx="20" fill="url(#g)"/>
  <g stroke="#fff" stroke-width="5" stroke-linecap="round" fill="none">
    <path d="M50 80c0-15-1-27-3-35"/>
    <path d="M47 45c-5-7-12-10-21-9 4-3 9-4 14-3"/>
    <path d="M47 45c7-6 15-7 23-4-5-3-10-3-15-2"/>
    <path d="M47 45c1-8 5-15 13-19-5 1-10 3-13 7"/>
    <path d="M47 45c-4-8-10-12-19-13 5-1 10 0 14 3"/>
  </g>
  <circle cx="47" cy="41" r="4" fill="#fff"/>
  <path d="M35 80h30" stroke="#fff" stroke-width="5" stroke-linecap="round"/>
</svg>
